{"title":"High Plains Invaders-AC3-XviD-DVDRip[Eng]2009 2Lions-Team","uid":5945584,"size":1463676346,"categoryP":"video","categoryS":"movies","magnet":"?xt=urn:btih:eb6955f64162303996cd343512d671cfc5bbf88c&amp;dn=High+Plains+Invaders-AC3-XviD-DVDRip%5BEng%5D2009+2Lions-Team&amp;tr=udp%3A%2F%2Ftracker.openbittorrent.com%3A80&amp;tr=udp%3A%2F%2Fopen.demonii.com%3A1337&amp;tr=udp%3A%2F%2Ftracker.coppersurfer.tk%3A6969&amp;tr=udp%3A%2F%2Fexodus.desync.com%3A6969","seeders":0,"leechers":1,"uploader":"FatFreddy31","files":-1,"time":1289348156,"description":"The hanging of honorable Indian-fighter Sam Phoenix in a small western town is cut short by the unexpected invasion of uranium based insectoid creatures, forcing Sam and a small band of survivors to take refuge in a church. They will need more than a prayer and a pistol to survive, as a Wild West landscape is inundated by a killer force of alien pioneers.\n &lt;a href=&quot;\nhttp://www.imdb.com/title/tt1388432/&quot; rel=&quot;nofollow&quot; target=&quot;_NEW&quot;&gt;\nhttp://www.imdb.com/title/tt1388432/&lt;/a&gt;\n\nSubtitles (srt) : Dutch.\n\nCovers included.\n\nHet begin van de 20ste eeuw. Een klein dorpje wordt opgeschrikt door een groep gigantische buitenaardse insecten, die op zoek zijn naar brandstof voor hun ruimteschip. Ze zijn echter niet te stoppen en vermoorden iedereen die op hun pad komt. Een tot de dood veroordeelde man besluit het dorpje te redden. Hij heeft immers toch niets te verliezen.\n &lt;a href=&quot;\nhttp://www.moviemeter.nl/film/61492&quot; rel=&quot;nofollow&quot; target=&quot;_NEW&quot;&gt;\nhttp://www.moviemeter.nl/film/61492&lt;/a&gt;\n\nOndertitels (srt) : Nederlands.\n\nHoesjes bijgevoegd.\n\nGeneral\nComplete name                    : High Plains Invaders-AC3-XviD-DVDRip[Eng]2009 2Lions-Team\\High Plains Invaders-AC3-XviD-DVDRip[Eng]2009 2Lions-Team.avi\nFormat                           : AVI\nFormat/Info                      : Audio Video Interleave\nFile size                        : 1.36 GiB\nDuration                         : 1h 27mn\nOverall bit rate                 : 2 233 Kbps\nWriting application              : VirtualDubMod 1.5.4.1 (build 2178/release)\nWriting library                  : VirtualDubMod build 2178/release\n\nVideo\nID                               : 0\nFormat                           : MPEG-4 Visual\nFormat profile                   : Simple@L3\nFormat settings, BVOP            : No\nFormat settings, QPel            : No\nFormat settings, GMC             : No warppoints\nFormat settings, Matrix          : Default (H.263)\nCodec ID                         : XVID\nCodec ID/Hint                    : XviD\nDuration                         : 1h 27mn\nBit rate                         : 1 776 Kbps\nWidth                            : 720 pixels\nHeight                           : 400 pixels\nDisplay aspect ratio             : 16:9\nFrame rate                       : 23.976 fps\nResolution                       : 8 bits\nColorimetry                      : 4:2:0\nScan type                        : Progressive\nBits/(Pixel*Frame)               : 0.257\nStream size                      : 1.08 GiB (80%)\nWriting library                  : XviD 1.1.2 (UTC 2006-11-01)\n\nAudio\nID                               : 1\nFormat                           : AC-3\nFormat/Info                      : Audio Coding 3\nCodec ID                         : 2000\nDuration                         : 1h 27mn\nBit rate mode                    : Constant\nBit rate                         : 448 Kbps\nChannel(s)                       : 6 channels\nChannel positions                : Front: L C R, Surround: L R, LFE\nSampling rate                    : 48.0 KHz\nStream size                      : 280 MiB (20%)\nAlignment                        : Split accross interleaves\nInterleave, duration             : 42 ms (1.00 video frame)\nInterleave, preload duration     : 500 ms\n\nThanks to blowan for the source.\n\nBrought to you by Gollum\n\nDON T HIT AND RUN Niet gelijk afhaken als de FILM binnen is blijf seeden. \n\nDon`t quit after you finished the download, but keep seeding\n\nThere are fake torrents from uploaders who use our team name.\nThose are not ours, or members from our team.\nWe 2Lions-Team are not responsible for the fake posts on our name\n\nWij 2Lions-Team zijn niet verantwoordelijk voor die zieke FAKE posten die op onze naam worden gedaan\n\nPlease check our site !!!\n\nto the fakers , get a life !!!","torrent":{"xt":"urn:btih:eb6955f64162303996cd343512d671cfc5bbf88c","amp;dn":"High+Plains+Invaders-AC3-XviD-DVDRip%5BEng%5D2009+2Lions-Team","amp;tr":["udp%3A%2F%2Ftracker.openbittorrent.com%3A80","udp%3A%2F%2Fopen.demonii.com%3A1337","udp%3A%2F%2Ftracker.coppersurfer.tk%3A6969","udp%3A%2F%2Fexodus.desync.com%3A6969"],"infoHash":"eb6955f64162303996cd343512d671cfc5bbf88c","infoHashBuffer":{"type":"Buffer","data":[235,105,85,246,65,98,48,57,150,205,52,53,18,214,113,207,197,187,248,140]},"announce":[],"urlList":[]}}